<?xml version="1.0" standalone="no"?>
<!DOCTYPE svg PUBLIC "-//W3C//DTD SVG 20010904//EN"
 "http://www.w3.org/TR/2001/REC-SVG-20010904/DTD/svg10.dtd">
<svg version="1.0" xmlns="http://www.w3.org/2000/svg"
 width="1024.000000pt" height="765.000000pt" viewBox="0 0 1024.000000 765.000000"
 preserveAspectRatio="xMidYMid meet">

<g transform="translate(0.000000,765.000000) scale(0.100000,-0.100000)"
fill="#000000" stroke="none">
<path d="M4880 6480 c-659 -69 -1241 -350 -1690 -817 -181 -188 -320 -376
-436 -590 l-39 -71 23 -48 23 -47 66 119 c86 157 159 268 252 384 413 515 976
848 1616 957 147 25 182 27 430 28 252 0 281 -2 426 -28 443 -78 847 -259
1186 -530 102 -81 278 -252 362 -351 55 -65 79 -85 144 -117 42 -22 77 -36 77
-32 0 5 -27 44 -60 87 -175 234 -395 441 -655 615 -321 216 -699 361 -1093
422 -155 23 -490 34 -632 19z"/>
<path d="M4845 6319 c-200 -21 -501 -98 -682 -175 -479 -204 -868 -524 -1156
-950 -99 -147 -207 -360 -200 -395 5 -29 -21 -92 -62 -148 -31 -43 -31 -51 0
-51 19 0 26 6 30 28 17 78 60 166 107 217 74 81 205 145 314 152 76 5 120 -4
205 -41 13 -6 20 4 33 46 50 154 180 260 356 290 49 9 87 9 130 2 l61 -10 14
32 c7 18 23 42 34 53 21 21 21 25 9 105 -11 77 -10 86 8 122 27 53 76 76 219
104 l117 23 44 -21 c49 -24 68 -55 87 -139 7 -31 19 -59 26 -61 10 -3 11 27 6
150 -7 144 -6 157 13 194 33 65 58 75 201 86 69 5 182 8 251 6 116 -3 130 -5
192 -35 87 -41 159 -108 193 -181 40 -84 46 -108 54 -210 l6 -93 42 31 c64 47
140 70 231 70 127 0 228 -38 314 -117 26 -26 50 -44 51 -42 2 2 20 67 41 144
21 77 45 153 55 170 23 41 88 77 126 71 65 -9 237 -69 264 -92 19 -16 42 -24
67 -25 45 0 236 -76 271 -107 12 -11 37 -24 55 -27 l32 -7 -28 33 c-82 98
-298 282 -451 384 -345 230 -733 371 -1137 415 -112 12 -426 11 -543 -1z"/>
<path d="M4820 5800 c-80 -4 -145 -8 -146 -9 0 0 1 -25 3 -53 1 -29 10 -273
18 -543 8 -269 17 -526 21 -571 l6 -81 71 4 c240 14 315 23 368 42 70 27 124
78 158 150 24 52 26 66 26 191 0 119 -3 141 -23 186 -13 28 -38 66 -57 84
l-34 33 34 48 c92 134 60 374 -60 462 -84 61 -143 70 -385 57z m300 -67 c118
-53 173 -189 140 -347 -10 -47 -20 -67 -59 -107 l-47 -48 42 -30 c28 -19 51
-48 70 -87 25 -51 29 -73 32 -166 5 -130 -12 -191 -71 -255 -55 -60 -121 -79
-309 -88 l-147 -7 -5 33 c-5 35 -37 946 -36 1056 l0 62 93 4 c170 7 249 2 297
-20z"/>
<path d="M4831 5723 l-74 -4 7 -152 c13 -297 36 -873 36 -905 l0 -34 118 7
c176 9 217 20 268 67 60 56 79 110 78 228 -1 52 -6 115 -13 138 -15 54 -80
127 -128 143 l-35 11 39 24 c84 50 123 151 104 271 -14 89 -52 149 -115 182
-51 26 -126 33 -285 24z m258 -57 c115 -60 138 -283 38 -376 -37 -36 -83 -49
-192 -56 -85 -6 -105 -4 -109 7 -2 8 -7 109 -11 226 l-6 212 63 4 c96 7 184
-1 217 -17z m8 -487 c35 -13 80 -55 100 -94 21 -40 29 -190 14 -252 -28 -111
-81 -143 -252 -150 l-119 -6 0 100 c0 55 -3 168 -7 251 l-6 151 34 4 c72 8
209 7 236 -4z"/>
<path d="M4893 5653 l-43 -4 0 -97 c0 -53 3 -141 7 -196 l6 -99 89 6 c152 10
201 55 201 186 0 82 -15 129 -51 165 -45 42 -86 50 -209 39z m152 -58 c39 -19
54 -48 61 -124 12 -109 -34 -161 -144 -161 l-49 0 -7 46 c-3 26 -6 91 -6 145
0 108 -2 106 73 108 22 0 54 -6 72 -14z"/>
<path d="M4866 5151 c-3 -4 -1 -102 4 -217 5 -115 10 -212 10 -216 0 -13 153
-8 193 6 87 32 112 78 111 211 0 84 -4 107 -22 143 -36 68 -69 82 -189 82 -56
0 -104 -4 -107 -9z m222 -56 c38 -32 56 -104 49 -191 -6 -75 -25 -110 -72
-130 -43 -18 -134 -19 -140 -1 -2 6 -5 85 -8 174 -4 184 -11 170 85 172 47 1
62 -3 86 -24z"/>
<path d="M6270 5488 c-36 -133 -40 -148 -155 -583 -120 -454 -119 -447 -105
-455 19 -12 171 -52 177 -47 4 5 19 60 153 562 32 121 80 298 105 393 26 96
44 179 42 186 -3 7 -40 23 -84 36 -43 12 -83 25 -89 27 -7 2 -24 -44 -44 -119z
m83 56 c12 -4 13 -12 6 -32 -5 -15 -54 -198 -109 -407 -55 -209 -115 -435
-133 -502 -21 -81 -37 -123 -46 -123 -20 0 -18 10 93 425 87 326 146 547 157
593 7 28 14 52 15 52 1 0 9 -3 17 -6z m76 -67 c-13 -45 -99 -362 -114 -422 -7
-27 -43 -162 -80 -300 -37 -137 -70 -260 -73 -273 -6 -28 -20 -38 -28 -18 -3
8 29 144 71 303 42 158 103 387 135 508 69 262 68 259 85 245 10 -8 11 -19 4
-43z"/>
<path d="M4257 5560 c-43 -10 -81 -21 -84 -24 -5 -5 18 -158 34 -223 4 -19 0
-22 -41 -28 -25 -4 -46 -11 -46 -16 0 -10 32 -163 35 -167 1 -1 21 1 44 7 38
8 42 7 46 -13 3 -11 23 -122 45 -245 40 -218 59 -279 96 -312 34 -30 82 -49
124 -49 49 0 170 29 170 41 0 10 -29 151 -34 165 -3 9 -15 9 -44 1 -31 -8 -44
-8 -55 2 -9 7 -24 62 -37 134 -12 67 -31 167 -41 221 -10 54 -16 102 -13 107
2 4 25 11 50 15 25 3 48 13 51 21 7 17 -17 162 -27 168 -4 2 -30 -2 -58 -10
-29 -7 -54 -10 -55 -7 -5 9 -25 110 -35 177 -9 60 -14 61 -125 35z m90 -111
c7 -41 15 -94 19 -118 8 -48 3 -46 103 -25 26 5 33 4 29 -6 -5 -16 -137 -45
-148 -33 -10 11 -50 245 -44 255 14 23 30 -5 41 -73z m-73 -46 c10 -60 20
-120 23 -134 4 -23 1 -26 -47 -37 -61 -14 -80 -15 -80 -3 0 5 20 14 45 20 53
13 53 13 26 151 -19 97 -19 110 3 110 8 0 18 -38 30 -107z m236 -167 c0 -8
-22 -18 -60 -25 -54 -11 -60 -14 -55 -34 5 -24 56 -300 75 -410 16 -91 38
-117 97 -117 56 0 55 -23 -2 -28 -86 -7 -104 13 -128 148 -9 47 -30 165 -48
262 -18 98 -30 180 -28 183 5 4 113 30 142 34 4 1 7 -5 7 -13z m-191 -88 c6
-29 29 -150 50 -269 21 -119 47 -231 56 -248 21 -42 72 -63 141 -59 73 4 73
-15 0 -26 -75 -12 -131 6 -162 51 -20 31 -44 138 -95 425 -12 70 -25 132 -29
138 -5 7 -20 8 -48 1 -55 -12 -59 12 -4 27 74 20 79 17 91 -40z"/>
<path d="M6637 5483 c-3 -5 -12 -30 -20 -58 -8 -27 -72 -216 -142 -420 -169
-492 -165 -479 -165 -541 0 -90 34 -135 134 -179 32 -14 63 -24 68 -23 7 3 43
90 65 159 3 11 -5 20 -26 29 -23 9 -31 19 -31 38 0 13 67 221 149 461 82 240
151 444 153 454 2 15 -14 25 -82 53 -92 37 -97 38 -103 27z m56 -61 c3 -4 -6
-39 -19 -77 -88 -261 -151 -447 -213 -627 -79 -231 -86 -279 -47 -321 13 -14
37 -32 55 -41 35 -18 41 -36 12 -36 -24 0 -79 38 -105 73 -26 36 -25 111 4
192 12 33 79 229 150 435 70 206 131 383 135 393 7 18 21 22 28 9z m70 -43
c-1 -8 -54 -167 -118 -354 -198 -575 -194 -558 -148 -601 14 -13 23 -27 20
-31 -14 -13 -58 18 -74 52 l-17 36 61 182 c79 232 233 685 244 715 10 25 35
25 32 1z"/>
<path d="M5649 5376 c-59 -21 -105 -54 -132 -94 -28 -43 -54 -118 -44 -129 8
-7 132 -32 165 -33 15 0 26 8 32 24 15 39 55 60 93 50 44 -13 62 -48 53 -106
l-7 -47 -105 1 c-94 0 -110 -3 -159 -27 -93 -45 -145 -139 -145 -263 0 -197
170 -295 340 -195 3 2 6 -9 5 -24 0 -26 3 -28 70 -40 121 -21 123 -20 130 35
3 26 22 151 41 277 42 273 45 365 14 430 -55 114 -230 184 -351 141z m201 -61
c88 -44 139 -136 126 -228 -16 -128 -79 -553 -82 -556 -2 -2 -9 -1 -17 2 -14
5 -11 31 44 389 27 178 27 233 1 285 -39 75 -104 108 -202 101 -71 -5 -123
-37 -148 -90 -17 -38 -42 -51 -42 -23 0 46 66 116 127 135 42 14 153 5 193
-15z m-22 -65 c44 -27 72 -76 72 -127 0 -37 -12 -126 -66 -476 -11 -68 -21
-106 -28 -104 -12 4 -14 42 -4 101 l7 38 -52 -49 c-61 -58 -110 -78 -167 -68
-92 16 -140 79 -140 184 0 81 15 130 53 177 49 59 93 74 229 74 l116 0 6 28
c16 80 17 104 6 136 -30 91 -164 110 -215 32 -29 -44 -59 -30 -34 15 30 58
151 79 217 39z"/>
<path d="M5620 4968 c-81 -23 -128 -88 -137 -188 -7 -73 9 -121 53 -160 39
-33 85 -39 145 -18 l34 13 -63 6 c-49 5 -69 12 -89 31 -67 68 -41 223 47 269
27 15 57 19 137 19 80 0 103 3 103 14 0 24 -160 34 -230 14z"/>
<path d="M5640 4902 c-112 -56 -107 -237 7 -258 94 -18 156 39 178 163 22 122
27 113 -67 113 -59 0 -93 -5 -118 -18z m142 -27 c3 -3 -1 -38 -7 -77 -15 -83
-36 -108 -93 -108 -51 0 -72 23 -72 79 0 56 20 87 63 100 36 10 101 14 109 6z"/>
<path d="M6916 5279 c-20 -43 -36 -85 -36 -94 0 -9 36 -32 96 -60 63 -29 94
-49 91 -57 -6 -14 -257 -582 -337 -765 -28 -62 -50 -115 -50 -118 0 -6 192
-97 196 -93 1 2 22 50 47 108 25 58 72 166 105 240 32 74 99 225 147 335 48
110 90 202 92 205 2 2 46 -17 97 -42 l93 -47 43 90 c23 49 41 91 39 93 -8 7
-120 62 -351 171 l-236 113 -36 -79z m226 -65 c253 -118 339 -164 333 -175 -9
-14 -21 -9 -281 117 -136 65 -233 118 -229 124 3 5 8 10 10 10 2 0 77 -34 167
-76z m-77 -46 c58 -28 105 -56 105 -61 0 -5 -30 -78 -66 -161 -97 -220 -207
-472 -272 -621 -31 -71 -57 -131 -58 -133 0 -1 -8 0 -17 3 -17 7 -24 -13 75
215 28 63 92 210 143 325 135 307 155 352 155 363 0 5 -43 29 -95 53 -52 23
-95 49 -95 56 0 21 14 16 125 -39z m270 -130 c58 -29 105 -58 105 -65 0 -18 3
-18 -102 31 -83 39 -94 42 -103 27 -5 -9 -93 -207 -196 -441 -129 -294 -192
-426 -204 -428 -14 -3 -15 1 -10 20 8 25 119 281 270 623 51 116 100 227 108
248 9 20 18 37 21 37 3 0 53 -24 111 -52z"/>
<path d="M3801 5159 c-150 -30 -251 -146 -251 -289 0 -62 14 -121 80 -337 48
-160 132 -233 265 -233 121 0 228 64 282 169 49 93 46 146 -17 351 -61 196
-73 223 -123 273 -61 61 -145 84 -236 66z m120 -51 c91 -31 119 -74 189 -298
47 -147 52 -172 48 -230 -10 -137 -117 -230 -265 -230 -89 0 -160 50 -193 135
-43 110 -103 336 -103 386 -1 107 64 192 175 230 62 22 102 23 149 7z"/>
<path d="M3785 5078 c-59 -22 -110 -63 -132 -108 -30 -58 -29 -122 1 -225 13
-44 34 -114 46 -155 47 -160 96 -210 202 -210 54 0 126 26 162 58 28 26 66
112 66 154 0 43 -99 375 -123 411 -32 49 -85 80 -140 83 -29 2 -65 -2 -82 -8z
m141 -59 c40 -24 51 -48 109 -242 65 -218 58 -278 -41 -334 -76 -44 -163 -21
-207 55 -19 33 -98 285 -111 354 -10 56 9 113 49 145 67 54 136 61 201 22z"/>
<path d="M3796 5010 c-40 -13 -74 -48 -87 -91 -10 -33 -6 -54 41 -210 57 -192
69 -220 102 -243 52 -37 155 -6 185 54 21 41 15 81 -33 242 -57 189 -75 225
-119 244 -38 16 -47 16 -89 4z m82 -57 c23 -20 122 -323 122 -372 0 -46 -35
-81 -80 -81 -48 0 -58 13 -93 125 -74 235 -80 263 -68 293 21 49 82 67 119 35z"/>
<path d="M7612 4964 c-76 -53 -63 -176 23 -204 110 -36 195 69 135 168 -31 51
-111 69 -158 36z m108 -54 c24 -24 26 -57 4 -88 -31 -44 -114 -15 -114 41 0
60 68 89 110 47z"/>
<path d="M7651 4886 c-21 -26 -9 -51 24 -51 27 0 30 3 30 30 0 23 -5 31 -21
33 -11 2 -26 -4 -33 -12z"/>
<path d="M2525 4908 c-27 -17 -133 -83 -235 -146 -102 -62 -191 -120 -199
-127 -11 -11 -2 -36 62 -157 41 -78 123 -237 182 -353 223 -435 267 -520 274
-527 3 -4 48 17 98 47 l92 55 -32 68 c-18 37 -65 131 -105 209 -39 79 -72 146
-72 150 0 5 59 44 130 88 72 44 130 83 130 87 0 5 -19 44 -43 88 l-43 79 -39
-24 c-93 -55 -123 -73 -175 -107 l-56 -36 -67 134 c-38 74 -66 138 -63 143 3
5 38 28 78 52 40 23 110 66 154 95 l82 52 -42 81 c-22 44 -45 81 -51 81 -5 0
-32 -15 -60 -32z m49 -56 c-5 -4 -64 -40 -130 -81 -262 -163 -270 -170 -245
-196 22 -25 462 -896 456 -905 -3 -5 -10 -10 -15 -10 -4 0 -73 127 -153 283
-79 155 -190 370 -245 477 l-101 195 212 131 c134 84 216 128 222 122 6 -6 6
-11 -1 -16z m36 -46 c0 -13 -36 -40 -115 -87 -22 -13 -77 -47 -123 -76 l-83
-54 87 -167 c47 -92 90 -171 94 -176 5 -4 67 28 139 73 73 45 136 79 141 76 6
-4 8 -10 5 -15 -4 -7 -222 -143 -297 -186 -5 -3 -208 387 -208 400 0 3 71 49
158 102 86 54 164 103 172 111 18 17 30 17 30 -1z m122 -526 c-31 -20 -90 -56
-130 -79 -40 -24 -75 -47 -77 -52 -5 -7 185 -388 208 -417 15 -18 -13 -36 -29
-19 -6 7 -62 110 -123 229 -95 185 -108 217 -93 222 9 3 78 44 152 90 89 56
137 81 142 73 4 -7 -15 -25 -50 -47z"/>
<path d="M3082 4824 c-160 -80 -213 -229 -143 -406 118 -299 152 -350 254
-393 150 -62 363 65 399 238 16 76 0 139 -84 329 -94 211 -156 268 -290 268
-55 0 -77 -6 -136 -36z m191 -15 c51 -14 115 -73 140 -129 149 -339 153 -351
122 -441 -46 -134 -216 -215 -337 -161 -58 25 -89 67 -145 194 -82 189 -95
230 -96 293 -1 111 73 202 195 240 54 17 73 18 121 4z"/>
<path d="M3136 4770 c-27 -11 -65 -34 -84 -52 -89 -86 -89 -146 4 -366 73
-173 107 -226 160 -248 111 -46 263 33 293 151 13 52 3 117 -32 195 -13 30
-44 100 -68 155 -49 111 -86 155 -146 173 -53 16 -68 15 -127 -8z m144 -52
c40 -28 54 -54 130 -236 66 -156 71 -192 39 -258 -15 -33 -32 -49 -72 -68 -57
-29 -96 -32 -135 -12 -47 25 -68 57 -138 216 -58 134 -67 163 -68 217 -1 47 4
68 20 90 28 38 99 73 150 73 26 0 53 -8 74 -22z"/>
<path d="M3157 4705 c-21 -7 -44 -19 -53 -26 -28 -23 -46 -71 -41 -108 5 -38
115 -305 148 -357 49 -80 168 -64 215 28 22 42 13 87 -37 201 -22 50 -51 120
-65 153 -40 99 -95 134 -167 109z m77 -57 c30 -27 156 -319 156 -361 0 -56
-69 -94 -120 -67 -18 9 -146 296 -157 352 -9 45 34 95 84 97 7 1 23 -9 37 -21z"/>
<path d="M7466 4688 c-7 -13 -93 -179 -189 -371 -174 -345 -176 -347 -154
-361 39 -25 156 -80 160 -75 3 2 88 169 191 371 l186 367 -84 46 c-46 25 -86
45 -89 45 -4 0 -13 -10 -21 -22z m64 -57 c0 -4 -4 -11 -9 -16 -5 -6 -79 -151
-166 -322 -93 -185 -163 -313 -171 -313 -8 0 -14 5 -14 11 0 8 212 431 321
641 9 16 39 15 39 -1z m60 -31 c0 -9 -316 -649 -326 -659 -2 -2 -10 -1 -19 3
-14 5 13 64 152 336 145 285 193 365 193 320z"/>
<path d="M2583 4562 c-24 -15 -43 -35 -43 -44 0 -23 1 -23 47 4 41 24 53 36
53 56 0 18 -10 15 -57 -16z"/>
<path d="M7752 4424 c-65 -32 -99 -74 -197 -243 -90 -156 -105 -195 -105 -265
0 -81 26 -144 84 -201 134 -134 298 -138 412 -12 24 27 43 55 41 60 -2 6 -41
34 -87 63 l-84 51 -32 -33 c-17 -19 -41 -34 -53 -34 -28 0 -81 52 -81 78 0 32
157 312 193 345 27 24 64 21 94 -9 26 -26 28 -52 8 -119 -6 -21 7 -31 118 -97
l48 -28 26 56 c53 116 27 231 -74 325 -93 87 -214 111 -311 63z m223 -58 c123
-68 170 -182 125 -301 -8 -22 -13 -25 -25 -15 -10 8 -11 18 -4 36 16 43 11
122 -11 164 -33 64 -123 120 -192 120 -41 0 -106 -30 -135 -61 -45 -50 -192
-320 -199 -367 -17 -114 50 -212 166 -243 63 -17 113 -5 161 38 25 23 45 33
55 29 15 -6 15 -8 -2 -28 -11 -11 -39 -34 -63 -50 -86 -55 -206 -27 -288 66
-53 60 -67 102 -61 181 5 55 15 78 88 206 98 173 124 206 180 236 65 34 130
31 205 -11z m-40 -55 c51 -23 92 -71 101 -116 8 -45 -3 -105 -20 -105 -9 0
-13 18 -12 66 1 63 0 67 -36 99 -20 19 -52 37 -72 40 -63 12 -90 -14 -188
-180 -48 -83 -92 -166 -97 -185 -15 -50 2 -104 42 -133 58 -44 113 -42 163 4
18 17 23 18 33 5 10 -12 6 -19 -21 -39 -43 -32 -81 -38 -138 -21 -82 24 -130
104 -111 186 10 43 142 283 185 335 30 36 76 62 111 62 11 0 38 -8 60 -18z"/>
<path d="M4281 4374 c-84 -157 -355 -255 -520 -188 -45 19 -48 18 -56 -13 -20
-82 -129 -197 -241 -253 -67 -34 -72 -35 -184 -35 -112 0 -117 1 -178 34 -73
40 -143 113 -181 189 -14 29 -30 51 -36 48 -7 -2 -37 -20 -68 -40 l-57 -36 85
-165 c130 -252 123 -277 -100 -404 -69 -40 -99 -51 -132 -51 -50 0 -49 5 -28
-130 69 -426 255 -837 540 -1192 97 -121 304 -325 425 -419 734 -570 1689
-703 2538 -353 732 303 1311 957 1512 1709 28 105 66 301 72 374 3 30 -1 36
-22 41 -101 27 -221 118 -274 207 l-30 49 -55 -1 c-47 0 -71 7 -145 45 -115
58 -163 102 -172 158 l-6 41 -29 -14 c-54 -29 -103 -19 -235 45 -77 37 -130
69 -140 85 -13 20 -25 25 -56 25 -54 0 -177 53 -230 99 -37 32 -48 37 -80 33
-25 -3 -83 10 -185 41 -153 47 -245 66 -209 44 192 -120 312 -218 406 -332
219 -266 325 -543 337 -881 8 -232 -21 -404 -103 -601 -43 -105 -146 -281
-190 -327 -39 -40 -182 -135 -289 -193 -72 -38 -219 -103 -233 -103 -3 0 21
16 54 36 219 131 423 358 529 586 45 98 92 259 106 366 18 135 6 364 -25 488
-57 227 -150 405 -302 576 -177 198 -393 326 -665 394 -104 26 -130 28 -299
29 -158 0 -200 -3 -290 -23 -497 -111 -867 -472 -997 -971 -31 -119 -43 -362
-24 -490 43 -292 170 -544 380 -751 62 -61 145 -131 200 -168 52 -34 91 -62
86 -62 -24 0 -285 137 -376 197 -137 91 -191 158 -283 353 -93 198 -126 334
-133 560 -7 222 18 377 94 575 115 297 341 564 606 714 l59 33 -69 34 c-37 18
-70 34 -73 34 -3 0 -16 -21 -29 -46z m441 -207 c-34 -54 -50 -68 -119 -107
-100 -56 -200 -131 -276 -205 -49 -48 -68 -60 -128 -77 -38 -10 -75 -18 -80
-16 -13 4 53 91 130 171 67 70 183 160 266 207 85 47 239 110 243 99 2 -5 -14
-37 -36 -72z m927 12 c85 -39 212 -125 291 -197 63 -57 193 -212 185 -220 -2
-3 -35 4 -72 13 -58 15 -77 26 -128 75 -87 84 -199 165 -291 212 -73 38 -83
46 -115 102 -19 34 -35 67 -37 74 -4 14 56 -7 167 -59z m-706 -103 c34 -14 75
-30 91 -36 16 -6 27 -12 25 -15 -3 -2 -34 6 -69 19 -36 13 -95 29 -132 36 -38
7 -68 17 -68 22 0 16 82 2 153 -26z m-113 -46 c107 -26 252 -78 262 -93 4 -7
8 -98 8 -203 l0 -192 -151 -107 c-84 -59 -174 -124 -201 -145 l-50 -37 -76 25
c-43 14 -129 40 -192 59 -63 20 -121 40 -128 46 -11 9 -13 49 -10 189 l3 177
65 66 c111 112 322 249 368 239 9 -2 55 -13 102 -24z m782 -14 c110 -62 194
-125 266 -198 l62 -64 11 -114 c5 -66 6 -145 2 -185 l-8 -70 -200 -66 -200
-66 -40 29 c-22 16 -111 80 -197 141 l-158 112 0 205 0 206 88 32 c73 26 184
58 267 75 11 3 22 5 25 6 3 0 40 -19 82 -43z m-1372 -463 c0 -97 -2 -174 -5
-171 -14 13 -23 213 -13 278 6 39 12 70 14 70 2 0 4 -79 4 -177z m870 -86 c0
-4 -86 -73 -193 -155 -37 -29 -73 -50 -79 -46 -6 4 -8 3 -5 -3 4 -6 -3 -19
-15 -29 -12 -11 -18 -13 -13 -5 6 11 4 13 -10 7 -16 -6 -16 -4 -4 10 19 24
189 149 258 190 57 34 61 37 61 31z m-1874 -180 l31 -92 104 -5 104 -5 -77
-58 c-43 -32 -80 -62 -82 -65 -2 -4 9 -48 25 -97 16 -50 29 -93 29 -97 0 -4
-38 20 -85 53 l-85 61 -82 -61 c-46 -33 -84 -57 -86 -53 -1 4 11 50 27 102 17
52 29 95 28 96 -1 0 -38 27 -82 60 l-80 59 105 5 105 5 29 97 c16 54 32 95 35
92 3 -3 20 -47 37 -97z m3829 41 c9 -29 23 -72 31 -95 l16 -43 99 0 c54 0 99
-3 99 -7 -1 -5 -36 -33 -79 -65 l-79 -56 28 -91 c16 -50 31 -95 35 -101 12
-20 -7 -9 -78 43 -40 29 -77 56 -84 60 -7 5 -46 -17 -95 -52 -46 -32 -84 -56
-86 -51 -1 4 11 49 28 99 17 51 30 94 28 95 -2 2 -39 29 -82 62 l-80 59 104 5
104 5 30 93 c17 50 33 92 37 92 4 0 15 -24 24 -52z m-2630 -46 c213 -68 255
-84 255 -99 0 -8 32 -111 71 -230 l71 -215 -43 -62 c-24 -34 -78 -110 -119
-169 l-75 -108 -40 6 c-56 7 -270 84 -307 109 -62 42 -147 245 -170 405 l-11
79 43 79 c49 89 88 149 138 211 27 33 39 41 56 36 12 -3 71 -22 131 -42z
m1582 -25 c28 -39 75 -112 104 -161 l53 -88 -13 -87 c-15 -104 -59 -240 -108
-334 -42 -79 -53 -86 -236 -147 -166 -55 -150 -63 -288 130 -132 184 -126 161
-79 290 15 41 44 131 65 200 21 69 42 130 47 135 8 9 371 133 393 134 6 0 33
-32 62 -72z m-1993 -321 c17 -130 74 -302 132 -397 20 -32 22 -45 17 -117 -3
-45 -9 -82 -13 -82 -11 0 -94 129 -133 206 -39 78 -90 230 -106 318 -6 32 -13
102 -17 155 l-6 96 60 -60 c55 -56 60 -64 66 -119z m2312 73 c-13 -177 -49
-316 -118 -455 -42 -85 -125 -214 -138 -214 -4 0 -10 35 -12 78 -3 75 -2 80
45 174 47 95 107 296 107 360 0 21 14 46 51 89 29 32 56 59 62 59 6 0 7 -33 3
-91z m-934 -354 c67 -88 198 -283 198 -295 0 -42 -213 -300 -258 -312 -15 -4
-71 -12 -124 -18 -105 -12 -277 0 -328 23 -45 20 -221 235 -246 302 -5 13 27
64 151 238 24 34 53 74 65 90 l22 27 241 -2 241 -3 38 -50z m-1817 -408 c-10
-17 -36 -55 -57 -84 -21 -29 -38 -55 -38 -58 0 -3 36 22 81 55 76 58 109 70
109 37 0 -7 -22 -47 -50 -88 -27 -40 -50 -77 -50 -82 0 -4 34 21 76 55 61 49
80 59 93 51 9 -6 16 -14 15 -19 0 -5 -49 -45 -108 -88 l-107 -79 -21 20 -20
21 46 71 c25 40 46 74 46 77 0 3 -19 -10 -42 -29 -24 -19 -55 -42 -71 -52 -26
-17 -28 -17 -47 0 -23 21 -28 9 78 174 50 77 55 82 70 67 15 -15 15 -18 -3
-49z m3121 19 c18 -14 18 -16 2 -32 -14 -14 -20 -15 -32 -5 -22 19 -48 6 -44
-21 3 -22 6 -23 84 -20 78 4 82 3 103 -23 28 -36 27 -67 -5 -104 -31 -38 -81
-42 -109 -11 -17 19 -18 22 -2 37 15 16 18 15 37 -2 16 -15 22 -16 35 -5 9 7
15 23 13 34 -3 20 -8 21 -80 18 -72 -3 -80 -1 -103 22 -33 33 -32 61 4 97 32
32 66 37 97 15z m-160 -118 c4 -7 -6 -23 -25 -39 -35 -29 -36 -54 -5 -80 12
-10 20 -7 44 16 28 27 50 27 50 1 0 -8 -11 -21 -25 -30 -31 -20 -31 -28 -1
-62 l23 -28 32 27 c36 30 46 33 57 15 7 -11 -80 -98 -97 -98 -8 0 -167 183
-171 197 -3 10 87 93 102 93 5 0 12 -5 16 -12z m-2683 -104 c51 -39 53 -44 35
-62 -8 -8 -18 -5 -40 13 -37 31 -42 31 -63 -1 -17 -26 -17 -27 13 -51 19 -14
29 -30 25 -38 -7 -21 -17 -19 -50 9 l-29 25 -27 -34 -27 -33 37 -30 c32 -26
36 -32 24 -46 -12 -14 -19 -11 -66 27 -30 23 -54 44 -54 47 -1 9 160 210 168
210 4 0 29 -16 54 -36z m2550 -52 c16 -14 16 -17 3 -31 -13 -13 -19 -13 -41
-1 -22 12 -28 12 -42 -3 -15 -15 -13 -21 31 -87 52 -78 69 -91 94 -66 14 14
15 19 3 37 -11 18 -10 24 4 38 15 15 17 15 31 -3 23 -32 18 -82 -12 -105 -57
-45 -116 -14 -180 94 -35 60 -30 102 15 132 36 25 62 23 94 -5z m-1413 -13
c97 -12 229 -7 316 11 45 9 56 7 134 -25 48 -19 78 -36 70 -39 -127 -46 -245
-66 -400 -66 -154 0 -281 21 -400 66 -20 8 138 73 165 68 11 -1 63 -8 115 -15z
m-994 -39 c24 -17 47 -42 50 -55 7 -27 -16 -72 -42 -82 -8 -3 -14 -18 -14 -33
0 -36 -45 -90 -74 -90 -22 0 -116 54 -116 66 0 4 10 21 23 38 13 17 45 66 71
109 27 42 50 77 53 77 2 0 24 -14 49 -30z m2267 -142 c62 -103 66 -114 50
-125 -22 -17 -22 -16 -98 108 -45 75 -60 108 -53 117 6 6 16 12 22 12 6 0 42
-51 79 -112z m-115 -65 l31 -128 -21 -17 c-11 -10 -24 -18 -29 -18 -5 0 -47
48 -94 107 -84 104 -86 107 -64 119 21 11 27 6 88 -77 35 -49 66 -88 67 -86 2
2 -11 49 -28 106 -25 85 -28 105 -17 112 8 5 19 9 25 9 6 0 25 -57 42 -127z
m-1811 4 c-4 -12 -18 -13 -45 -6 -17 5 -22 -3 -72 -113 -40 -89 -44 -94 -69
-79 -11 7 -4 29 33 112 43 95 46 104 30 116 -9 7 -22 14 -28 16 -8 3 -7 9 2
20 13 15 20 13 84 -19 40 -20 68 -40 65 -47z m1583 -7 c25 -25 36 -66 22 -83
-8 -9 -6 -16 8 -25 21 -13 76 -112 63 -112 -5 0 -17 -3 -29 -6 -17 -5 -24 2
-38 40 -10 25 -23 47 -29 47 -17 2 -51 -2 -55 -6 -2 -2 5 -28 17 -59 l20 -55
-20 -6 c-11 -4 -23 -5 -25 -2 -14 14 -93 242 -87 248 9 8 100 37 121 38 6 1
21 -8 32 -19z m-1496 -9 c9 -13 -77 -243 -92 -249 -7 -2 -18 0 -24 6 -17 17
70 252 93 252 10 0 20 -4 23 -9z m178 -58 c24 -21 26 -88 2 -79 -9 3 -20 6
-25 6 -6 0 -8 8 -4 19 7 22 -18 46 -39 38 -18 -7 -59 -136 -54 -169 5 -34 45
-37 57 -4 7 18 15 23 30 19 27 -7 26 -23 0 -57 -26 -33 -75 -35 -114 -4 -25
19 -27 26 -22 67 15 123 63 198 120 187 17 -4 39 -14 49 -23z m1118 8 c0 -15
-10 -21 -40 -26 -32 -5 -40 -11 -40 -28 0 -40 14 -50 59 -42 36 6 41 5 41 -13
0 -15 -9 -21 -41 -26 -43 -7 -43 -6 -18 -73 8 -22 10 -22 50 -8 52 19 49 19
49 -4 0 -15 -13 -23 -54 -35 -30 -9 -60 -16 -68 -16 -10 0 -23 36 -42 113 -15
61 -29 119 -32 128 -3 12 8 20 48 32 72 21 88 21 88 -2z m-991 -74 c-14 -70
-11 -72 32 -18 27 33 47 50 56 47 8 -3 19 -6 24 -6 6 0 -9 -22 -32 -50 l-41
-49 21 -82 c12 -45 19 -84 16 -87 -10 -11 -55 18 -55 35 0 10 -5 36 -11 58
-10 35 -13 37 -24 22 -7 -10 -15 -35 -19 -57 -6 -41 -11 -46 -35 -31 -12 8
-11 26 3 122 23 149 22 147 50 142 21 -4 22 -8 15 -46z m766 37 c8 -4 22 -19
30 -34 13 -25 13 -29 -1 -34 -25 -10 -32 -7 -39 15 -9 28 -49 22 -53 -8 -3
-18 6 -26 48 -44 61 -26 80 -50 80 -101 0 -45 -27 -68 -80 -68 -41 0 -53 7
-69 37 -18 35 -14 53 13 53 18 0 25 -6 28 -22 4 -28 52 -38 61 -14 11 27 -2
42 -54 67 -58 26 -79 51 -79 90 0 48 64 82 115 63z m-465 -45 c0 -16 -7 -19
-45 -19 -29 0 -45 -4 -45 -12 0 -7 -3 -23 -6 -35 -5 -20 -2 -22 37 -25 32 -2
45 -8 47 -20 3 -15 -4 -18 -42 -18 l-46 0 0 -39 c0 -38 0 -39 46 -46 35 -5 44
-10 42 -23 -2 -9 -7 -16 -11 -14 -4 1 -35 2 -68 2 l-61 0 7 133 c4 72 9 134
10 137 2 3 33 3 69 2 57 -3 66 -6 66 -23z m200 1 c0 -16 -7 -20 -31 -20 l-31
0 7 -120 8 -120 -26 0 -26 0 -3 118 -3 117 -27 0 c-20 -1 -28 4 -28 16 0 20
21 26 103 28 51 1 57 -1 57 -19z"/>
<path d="M3955 1884 c-15 -23 -15 -28 -2 -41 12 -12 19 -13 36 -4 23 13 28 40
9 59 -17 17 -24 15 -43 -14z"/>
<path d="M3889 1784 c-18 -30 -19 -38 -8 -45 25 -15 48 -10 65 16 16 24 16 27
-1 45 -25 27 -30 26 -56 -16z"/>
<path d="M5848 1703 c-10 -2 -18 -8 -18 -12 0 -20 23 -71 32 -71 24 0 48 23
48 45 0 20 -28 49 -42 44 -2 -1 -11 -3 -20 -6z"/>
<path d="M2400 3620 c0 -96 32 -348 60 -465 120 -504 350 -927 705 -1297 361
-376 812 -637 1315 -762 211 -52 319 -66 560 -73 254 -7 405 5 614 48 814 166
1521 708 1899 1456 111 218 181 415 231 648 26 120 51 294 43 302 -2 2 -23 1
-46 -3 -35 -6 -41 -10 -41 -32 0 -45 -40 -258 -69 -368 -116 -441 -335 -821
-676 -1173 -215 -222 -431 -380 -713 -521 -736 -367 -1592 -368 -2322 -1 -287
144 -508 307 -730 537 -397 411 -639 905 -720 1465 -19 133 -25 153 -65 230
l-44 84 -1 -75z"/>
</g>
</svg>
